# xmcd
# Copyright (C) 1995-1998 Ti Kan
#
# Track frame offsets:
#       150
#       5910
#       22469
#       38628
#       53897
#       72302
#       89095
#       101074
#       120248
#       136829
#       153998
#       172040
#
# Disc length: 2584 seconds
#
# Revision: 0
# Processed by: cddbd v1.5.2PL0 Copyright (c) Steve Scherf et al.
# Submitted via: CD-Transfer v1.0
#
DISCID=a60a160c
DTITLE=Livepräsenz - Tagesthemen
DYEAR=1900
DGENRE=
TTITLE0=Die Reise Beginnt
TTITLE1=Für Dich
TTITLE2=Lass Es Hinter Dir
TTITLE3=Ihr Da Draußen
TTITLE4=Tagesthemen
TTITLE5=Do Not Copy
TTITLE6=Kunst Mit Herzen
TTITLE7=Alles Wird Besser
TTITLE8=Tage Vergehen
TTITLE9=Wie Er? Wie Ich? Wie Wer?
TTITLE10=Spürst Du's Auch
TTITLE11=Ring Frei
EXTD=
EXTT0=
EXTT1=
EXTT2=
EXTT3=
EXTT4=
EXTT5=
EXTT6=
EXTT7=
EXTT8=
EXTT9=
EXTT10=
EXTT11=
PLAYORDER=
